<svg id="visual" viewBox="0 0 960 300" width="960" height="300" xmlns="http://www.w3.org/2000/svg" xmlns:xlink="http://www.w3.org/1999/xlink" version="1.1"><rect x="0" y="0" width="960" height="300" fill="#272F32"></rect><path d="M0 58L22.8 60.7C45.7 63.3 91.3 68.7 137 75C182.7 81.3 228.3 88.7 274 93.5C319.7 98.3 365.3 100.7 411.2 97C457 93.3 503 83.7 548.8 89.8C594.7 96 640.3 118 686 126.5C731.7 135 777.3 130 823 119.7C868.7 109.3 914.3 93.7 937.2 85.8L960 78L960 301L937.2 301C914.3 301 868.7 301 823 301C777.3 301 731.7 301 686 301C640.3 301 594.7 301 548.8 301C503 301 457 301 411.2 301C365.3 301 319.7 301 274 301C228.3 301 182.7 301 137 301C91.3 301 45.7 301 22.8 301L0 301Z" fill="#ff3d2e"></path><path d="M0 122L22.8 129.3C45.7 136.7 91.3 151.3 137 159.2C182.7 167 228.3 168 274 170C319.7 172 365.3 175 411.2 165.7C457 156.3 503 134.7 548.8 121C594.7 107.3 640.3 101.7 686 106.5C731.7 111.3 777.3 126.7 823 132.7C868.7 138.7 914.3 135.3 937.2 133.7L960 132L960 301L937.2 301C914.3 301 868.7 301 823 301C777.3 301 731.7 301 686 301C640.3 301 594.7 301 548.8 301C503 301 457 301 411.2 301C365.3 301 319.7 301 274 301C228.3 301 182.7 301 137 301C91.3 301 45.7 301 22.8 301L0 301Z" fill="#e33629"></path><path d="M0 165L22.8 172.2C45.7 179.3 91.3 193.7 137 194.3C182.7 195 228.3 182 274 182.2C319.7 182.3 365.3 195.7 411.2 194.8C457 194 503 179 548.8 177.2C594.7 175.3 640.3 186.7 686 187.8C731.7 189 777.3 180 823 181.2C868.7 182.3 914.3 193.7 937.2 199.3L960 205L960 301L937.2 301C914.3 301 868.7 301 823 301C777.3 301 731.7 301 686 301C640.3 301 594.7 301 548.8 301C503 301 457 301 411.2 301C365.3 301 319.7 301 274 301C228.3 301 182.7 301 137 301C91.3 301 45.7 301 22.8 301L0 301Z" fill="#c72f24"></path><path d="M0 209L22.8 209.8C45.7 210.7 91.3 212.3 137 210C182.7 207.7 228.3 201.3 274 205C319.7 208.7 365.3 222.3 411.2 223.2C457 224 503 212 548.8 211.5C594.7 211 640.3 222 686 227.7C731.7 233.3 777.3 233.7 823 228.5C868.7 223.3 914.3 212.7 937.2 207.3L960 202L960 301L937.2 301C914.3 301 868.7 301 823 301C777.3 301 731.7 301 686 301C640.3 301 594.7 301 548.8 301C503 301 457 301 411.2 301C365.3 301 319.7 301 274 301C228.3 301 182.7 301 137 301C91.3 301 45.7 301 22.8 301L0 301Z" fill="#ac281f"></path><path d="M0 270L22.8 269.3C45.7 268.7 91.3 267.3 137 265.5C182.7 263.7 228.3 261.3 274 260.3C319.7 259.3 365.3 259.7 411.2 261.3C457 263 503 266 548.8 262.2C594.7 258.3 640.3 247.7 686 245.7C731.7 243.7 777.3 250.3 823 252.5C868.7 254.7 914.3 252.3 937.2 251.2L960 250L960 301L937.2 301C914.3 301 868.7 301 823 301C777.3 301 731.7 301 686 301C640.3 301 594.7 301 548.8 301C503 301 457 301 411.2 301C365.3 301 319.7 301 274 301C228.3 301 182.7 301 137 301C91.3 301 45.7 301 22.8 301L0 301Z" fill="#91221a"></path></svg>