<svg id="visual" viewBox="0 0 960 300" width="960" height="300" xmlns="http://www.w3.org/2000/svg" xmlns:xlink="http://www.w3.org/1999/xlink" version="1.1"><rect x="0" y="0" width="960" height="300" fill="#272F32"></rect><path d="M0 166L22.8 165.2C45.7 164.3 91.3 162.7 137 155.7C182.7 148.7 228.3 136.3 274 129.8C319.7 123.3 365.3 122.7 411.2 125C457 127.3 503 132.7 548.8 136.2C594.7 139.7 640.3 141.3 686 137C731.7 132.7 777.3 122.3 823 115.8C868.7 109.3 914.3 106.7 937.2 105.3L960 104L960 0L937.2 0C914.3 0 868.7 0 823 0C777.3 0 731.7 0 686 0C640.3 0 594.7 0 548.8 0C503 0 457 0 411.2 0C365.3 0 319.7 0 274 0C228.3 0 182.7 0 137 0C91.3 0 45.7 0 22.8 0L0 0Z" fill="#ff3d2e"></path><path d="M0 113L22.8 117.7C45.7 122.3 91.3 131.7 137 130.7C182.7 129.7 228.3 118.3 274 117.3C319.7 116.3 365.3 125.7 411.2 125.8C457 126 503 117 548.8 109C594.7 101 640.3 94 686 90C731.7 86 777.3 85 823 87C868.7 89 914.3 94 937.2 96.5L960 99L960 0L937.2 0C914.3 0 868.7 0 823 0C777.3 0 731.7 0 686 0C640.3 0 594.7 0 548.8 0C503 0 457 0 411.2 0C365.3 0 319.7 0 274 0C228.3 0 182.7 0 137 0C91.3 0 45.7 0 22.8 0L0 0Z" fill="#e33629"></path><path d="M0 65L22.8 69.2C45.7 73.3 91.3 81.7 137 88.2C182.7 94.7 228.3 99.3 274 95.7C319.7 92 365.3 80 411.2 74.3C457 68.7 503 69.3 548.8 72C594.7 74.7 640.3 79.3 686 82.2C731.7 85 777.3 86 823 86.7C868.7 87.3 914.3 87.7 937.2 87.8L960 88L960 0L937.2 0C914.3 0 868.7 0 823 0C777.3 0 731.7 0 686 0C640.3 0 594.7 0 548.8 0C503 0 457 0 411.2 0C365.3 0 319.7 0 274 0C228.3 0 182.7 0 137 0C91.3 0 45.7 0 22.8 0L0 0Z" fill="#c72f24"></path><path d="M0 59L22.8 60.2C45.7 61.3 91.3 63.7 137 60.5C182.7 57.3 228.3 48.7 274 47C319.7 45.3 365.3 50.7 411.2 51.8C457 53 503 50 548.8 51.8C594.7 53.7 640.3 60.3 686 61.2C731.7 62 777.3 57 823 52.5C868.7 48 914.3 44 937.2 42L960 40L960 0L937.2 0C914.3 0 868.7 0 823 0C777.3 0 731.7 0 686 0C640.3 0 594.7 0 548.8 0C503 0 457 0 411.2 0C365.3 0 319.7 0 274 0C228.3 0 182.7 0 137 0C91.3 0 45.7 0 22.8 0L0 0Z" fill="#ac281f"></path><path d="M0 51L22.8 49C45.7 47 91.3 43 137 37.8C182.7 32.7 228.3 26.3 274 27.7C319.7 29 365.3 38 411.2 41.5C457 45 503 43 548.8 42C594.7 41 640.3 41 686 41C731.7 41 777.3 41 823 39.3C868.7 37.7 914.3 34.3 937.2 32.7L960 31L960 0L937.2 0C914.3 0 868.7 0 823 0C777.3 0 731.7 0 686 0C640.3 0 594.7 0 548.8 0C503 0 457 0 411.2 0C365.3 0 319.7 0 274 0C228.3 0 182.7 0 137 0C91.3 0 45.7 0 22.8 0L0 0Z" fill="#91221a"></path></svg>